<mxfile host="Electron" modified="2023-11-30T11:39:55.374Z" agent="Mozilla/5.0 (Windows NT 10.0; Win64; x64) AppleWebKit/537.36 (KHTML, like Gecko) draw.io/22.0.3 Chrome/114.0.5735.289 Electron/25.8.4 Safari/537.36" etag="pM_PAV43HP0ttl2QBDsc" version="22.0.3" type="device">
  <diagram name="第 1 页" id="OTMeOdONEhpsJ4RH3VSD">
    <mxGraphModel dx="3749" dy="2815" grid="1" gridSize="10" guides="1" tooltips="1" connect="1" arrows="1" fold="1" page="1" pageScale="1" pageWidth="827" pageHeight="1169" math="0" shadow="0">
      <root>
        <mxCell id="0" />
        <mxCell id="1" parent="0" />
        <mxCell id="Vi7txVSC50OlgZ6EtbNQ-19" style="edgeStyle=orthogonalEdgeStyle;rounded=0;orthogonalLoop=1;jettySize=auto;html=1;exitX=0.25;exitY=1;exitDx=0;exitDy=0;entryX=0.451;entryY=-0.036;entryDx=0;entryDy=0;entryPerimeter=0;" edge="1" parent="1" source="Vi7txVSC50OlgZ6EtbNQ-6" target="Vi7txVSC50OlgZ6EtbNQ-17">
          <mxGeometry relative="1" as="geometry">
            <mxPoint x="13.176470588235134" y="440" as="targetPoint" />
            <Array as="points" />
          </mxGeometry>
        </mxCell>
        <mxCell id="Vi7txVSC50OlgZ6EtbNQ-30" value="pc" style="edgeLabel;html=1;align=center;verticalAlign=middle;resizable=0;points=[];" vertex="1" connectable="0" parent="Vi7txVSC50OlgZ6EtbNQ-19">
          <mxGeometry x="0.7295" y="3" relative="1" as="geometry">
            <mxPoint as="offset" />
          </mxGeometry>
        </mxCell>
        <mxCell id="Vi7txVSC50OlgZ6EtbNQ-37" style="edgeStyle=orthogonalEdgeStyle;rounded=0;orthogonalLoop=1;jettySize=auto;html=1;exitX=1;exitY=0.25;exitDx=0;exitDy=0;" edge="1" parent="1" source="Vi7txVSC50OlgZ6EtbNQ-6" target="Vi7txVSC50OlgZ6EtbNQ-8">
          <mxGeometry relative="1" as="geometry">
            <mxPoint x="80" y="70" as="targetPoint" />
            <Array as="points">
              <mxPoint x="80" y="182" />
              <mxPoint x="80" y="90" />
            </Array>
          </mxGeometry>
        </mxCell>
        <mxCell id="Vi7txVSC50OlgZ6EtbNQ-40" value="pc" style="edgeLabel;html=1;align=center;verticalAlign=middle;resizable=0;points=[];" vertex="1" connectable="0" parent="Vi7txVSC50OlgZ6EtbNQ-37">
          <mxGeometry x="0.5692" y="-1" relative="1" as="geometry">
            <mxPoint as="offset" />
          </mxGeometry>
        </mxCell>
        <mxCell id="Vi7txVSC50OlgZ6EtbNQ-39" style="edgeStyle=orthogonalEdgeStyle;rounded=0;orthogonalLoop=1;jettySize=auto;html=1;exitX=1;exitY=0.25;exitDx=0;exitDy=0;entryX=-0.096;entryY=0.05;entryDx=0;entryDy=0;entryPerimeter=0;" edge="1" parent="1" source="Vi7txVSC50OlgZ6EtbNQ-6" target="Vi7txVSC50OlgZ6EtbNQ-8">
          <mxGeometry relative="1" as="geometry">
            <mxPoint x="80" y="60" as="targetPoint" />
            <Array as="points">
              <mxPoint x="70" y="182" />
              <mxPoint x="70" y="61" />
            </Array>
          </mxGeometry>
        </mxCell>
        <mxCell id="Vi7txVSC50OlgZ6EtbNQ-41" value="pc8" style="edgeLabel;html=1;align=center;verticalAlign=middle;resizable=0;points=[];" vertex="1" connectable="0" parent="Vi7txVSC50OlgZ6EtbNQ-39">
          <mxGeometry x="0.6058" relative="1" as="geometry">
            <mxPoint as="offset" />
          </mxGeometry>
        </mxCell>
        <mxCell id="Vi7txVSC50OlgZ6EtbNQ-6" value="" style="swimlane;startSize=0;" vertex="1" parent="1">
          <mxGeometry x="-20" y="370" width="55" height="140" as="geometry" />
        </mxCell>
        <mxCell id="Vi7txVSC50OlgZ6EtbNQ-7" value="IFU" style="text;html=1;strokeColor=none;fillColor=none;align=center;verticalAlign=middle;whiteSpace=wrap;rounded=0;" vertex="1" parent="Vi7txVSC50OlgZ6EtbNQ-6">
          <mxGeometry x="-2.5" y="55" width="60" height="30" as="geometry" />
        </mxCell>
        <mxCell id="Vi7txVSC50OlgZ6EtbNQ-43" style="edgeStyle=orthogonalEdgeStyle;rounded=0;orthogonalLoop=1;jettySize=auto;html=1;exitX=1;exitY=0.75;exitDx=0;exitDy=0;" edge="1" parent="1" source="Vi7txVSC50OlgZ6EtbNQ-8" target="Vi7txVSC50OlgZ6EtbNQ-33">
          <mxGeometry relative="1" as="geometry" />
        </mxCell>
        <mxCell id="Vi7txVSC50OlgZ6EtbNQ-45" value="D_funct" style="edgeLabel;html=1;align=center;verticalAlign=middle;resizable=0;points=[];" vertex="1" connectable="0" parent="Vi7txVSC50OlgZ6EtbNQ-43">
          <mxGeometry x="0.4972" relative="1" as="geometry">
            <mxPoint x="-1" as="offset" />
          </mxGeometry>
        </mxCell>
        <mxCell id="Vi7txVSC50OlgZ6EtbNQ-48" style="edgeStyle=orthogonalEdgeStyle;rounded=0;orthogonalLoop=1;jettySize=auto;html=1;exitX=1;exitY=0.75;exitDx=0;exitDy=0;entryX=0;entryY=0.5;entryDx=0;entryDy=0;" edge="1" parent="1" source="Vi7txVSC50OlgZ6EtbNQ-8" target="Vi7txVSC50OlgZ6EtbNQ-46">
          <mxGeometry relative="1" as="geometry" />
        </mxCell>
        <mxCell id="Vi7txVSC50OlgZ6EtbNQ-49" value="imm" style="edgeLabel;html=1;align=center;verticalAlign=middle;resizable=0;points=[];" vertex="1" connectable="0" parent="Vi7txVSC50OlgZ6EtbNQ-48">
          <mxGeometry x="0.7089" y="-2" relative="1" as="geometry">
            <mxPoint x="1" as="offset" />
          </mxGeometry>
        </mxCell>
        <mxCell id="Vi7txVSC50OlgZ6EtbNQ-53" style="edgeStyle=orthogonalEdgeStyle;rounded=0;orthogonalLoop=1;jettySize=auto;html=1;exitX=1;exitY=0.75;exitDx=0;exitDy=0;entryX=0;entryY=0.25;entryDx=0;entryDy=0;" edge="1" parent="1" source="Vi7txVSC50OlgZ6EtbNQ-8" target="Vi7txVSC50OlgZ6EtbNQ-50">
          <mxGeometry relative="1" as="geometry" />
        </mxCell>
        <mxCell id="Vi7txVSC50OlgZ6EtbNQ-54" value="j-address" style="edgeLabel;html=1;align=center;verticalAlign=middle;resizable=0;points=[];" vertex="1" connectable="0" parent="Vi7txVSC50OlgZ6EtbNQ-53">
          <mxGeometry x="0.7285" y="-2" relative="1" as="geometry">
            <mxPoint as="offset" />
          </mxGeometry>
        </mxCell>
        <mxCell id="Vi7txVSC50OlgZ6EtbNQ-8" value="" style="swimlane;startSize=0;" vertex="1" parent="1">
          <mxGeometry x="230" y="40" width="20" height="840" as="geometry" />
        </mxCell>
        <mxCell id="Vi7txVSC50OlgZ6EtbNQ-14" value="D" style="text;html=1;strokeColor=none;fillColor=none;align=center;verticalAlign=middle;whiteSpace=wrap;rounded=0;" vertex="1" parent="Vi7txVSC50OlgZ6EtbNQ-8">
          <mxGeometry x="-5" y="165" width="30" height="25" as="geometry" />
        </mxCell>
        <mxCell id="Vi7txVSC50OlgZ6EtbNQ-28" style="edgeStyle=orthogonalEdgeStyle;rounded=0;orthogonalLoop=1;jettySize=auto;html=1;exitX=0.75;exitY=0;exitDx=0;exitDy=0;entryX=0;entryY=0.75;entryDx=0;entryDy=0;" edge="1" parent="1" source="Vi7txVSC50OlgZ6EtbNQ-17" target="Vi7txVSC50OlgZ6EtbNQ-8">
          <mxGeometry relative="1" as="geometry">
            <mxPoint x="55.529411764705856" y="310" as="targetPoint" />
          </mxGeometry>
        </mxCell>
        <mxCell id="Vi7txVSC50OlgZ6EtbNQ-32" value="F_instr" style="edgeLabel;html=1;align=center;verticalAlign=middle;resizable=0;points=[];" vertex="1" connectable="0" parent="Vi7txVSC50OlgZ6EtbNQ-28">
          <mxGeometry x="0.5936" relative="1" as="geometry">
            <mxPoint as="offset" />
          </mxGeometry>
        </mxCell>
        <mxCell id="Vi7txVSC50OlgZ6EtbNQ-17" value="" style="swimlane;startSize=0;" vertex="1" parent="1">
          <mxGeometry x="-70" y="990" width="140" height="100" as="geometry" />
        </mxCell>
        <mxCell id="Vi7txVSC50OlgZ6EtbNQ-18" value="IM(testbench)" style="text;html=1;strokeColor=none;fillColor=none;align=center;verticalAlign=middle;whiteSpace=wrap;rounded=0;" vertex="1" parent="Vi7txVSC50OlgZ6EtbNQ-17">
          <mxGeometry x="40" y="30" width="60" height="30" as="geometry" />
        </mxCell>
        <mxCell id="Vi7txVSC50OlgZ6EtbNQ-21" style="edgeStyle=orthogonalEdgeStyle;rounded=0;orthogonalLoop=1;jettySize=auto;html=1;exitX=0.5;exitY=1;exitDx=0;exitDy=0;" edge="1" parent="1">
          <mxGeometry relative="1" as="geometry">
            <mxPoint x="-40.000000000000455" y="980" as="sourcePoint" />
            <mxPoint x="-40.000000000000455" y="980" as="targetPoint" />
          </mxGeometry>
        </mxCell>
        <mxCell id="Vi7txVSC50OlgZ6EtbNQ-33" value="" style="swimlane;startSize=0;" vertex="1" parent="1">
          <mxGeometry x="400" y="80" width="90" height="310" as="geometry" />
        </mxCell>
        <mxCell id="Vi7txVSC50OlgZ6EtbNQ-34" value="MCU" style="text;html=1;strokeColor=none;fillColor=none;align=center;verticalAlign=middle;whiteSpace=wrap;rounded=0;" vertex="1" parent="Vi7txVSC50OlgZ6EtbNQ-33">
          <mxGeometry x="13" y="57.5" width="60" height="30" as="geometry" />
        </mxCell>
        <mxCell id="Vi7txVSC50OlgZ6EtbNQ-42" style="edgeStyle=orthogonalEdgeStyle;rounded=0;orthogonalLoop=1;jettySize=auto;html=1;exitX=1;exitY=0.75;exitDx=0;exitDy=0;entryX=-0.028;entryY=0.205;entryDx=0;entryDy=0;entryPerimeter=0;" edge="1" parent="1" source="Vi7txVSC50OlgZ6EtbNQ-8" target="Vi7txVSC50OlgZ6EtbNQ-33">
          <mxGeometry relative="1" as="geometry" />
        </mxCell>
        <mxCell id="Vi7txVSC50OlgZ6EtbNQ-44" value="D_opcode" style="edgeLabel;html=1;align=center;verticalAlign=middle;resizable=0;points=[];" vertex="1" connectable="0" parent="Vi7txVSC50OlgZ6EtbNQ-42">
          <mxGeometry x="0.7084" relative="1" as="geometry">
            <mxPoint as="offset" />
          </mxGeometry>
        </mxCell>
        <mxCell id="Vi7txVSC50OlgZ6EtbNQ-58" style="edgeStyle=orthogonalEdgeStyle;rounded=0;orthogonalLoop=1;jettySize=auto;html=1;exitX=1;exitY=0.5;exitDx=0;exitDy=0;entryX=0.75;entryY=0;entryDx=0;entryDy=0;" edge="1" parent="1" source="Vi7txVSC50OlgZ6EtbNQ-46" target="Vi7txVSC50OlgZ6EtbNQ-50">
          <mxGeometry relative="1" as="geometry" />
        </mxCell>
        <mxCell id="Vi7txVSC50OlgZ6EtbNQ-59" value="b_offset" style="edgeLabel;html=1;align=center;verticalAlign=middle;resizable=0;points=[];" vertex="1" connectable="0" parent="Vi7txVSC50OlgZ6EtbNQ-58">
          <mxGeometry x="0.3548" y="2" relative="1" as="geometry">
            <mxPoint as="offset" />
          </mxGeometry>
        </mxCell>
        <mxCell id="Vi7txVSC50OlgZ6EtbNQ-46" value="" style="triangle;whiteSpace=wrap;html=1;" vertex="1" parent="1">
          <mxGeometry x="400" y="570" width="107" height="80" as="geometry" />
        </mxCell>
        <mxCell id="Vi7txVSC50OlgZ6EtbNQ-47" value="EXT" style="text;html=1;strokeColor=none;fillColor=none;align=center;verticalAlign=middle;whiteSpace=wrap;rounded=0;" vertex="1" parent="1">
          <mxGeometry x="407" y="595" width="60" height="30" as="geometry" />
        </mxCell>
        <mxCell id="Vi7txVSC50OlgZ6EtbNQ-76" style="edgeStyle=orthogonalEdgeStyle;rounded=0;orthogonalLoop=1;jettySize=auto;html=1;exitX=0.5;exitY=1;exitDx=0;exitDy=0;entryX=0;entryY=0.5;entryDx=0;entryDy=0;" edge="1" parent="1" source="Vi7txVSC50OlgZ6EtbNQ-50" target="Vi7txVSC50OlgZ6EtbNQ-7">
          <mxGeometry relative="1" as="geometry">
            <mxPoint x="-240" y="940" as="targetPoint" />
            <Array as="points">
              <mxPoint x="512" y="920" />
              <mxPoint x="-210" y="920" />
              <mxPoint x="-210" y="440" />
            </Array>
          </mxGeometry>
        </mxCell>
        <mxCell id="Vi7txVSC50OlgZ6EtbNQ-77" value="npc" style="edgeLabel;html=1;align=center;verticalAlign=middle;resizable=0;points=[];" vertex="1" connectable="0" parent="Vi7txVSC50OlgZ6EtbNQ-76">
          <mxGeometry x="-0.8725" y="4" relative="1" as="geometry">
            <mxPoint as="offset" />
          </mxGeometry>
        </mxCell>
        <mxCell id="Vi7txVSC50OlgZ6EtbNQ-50" value="" style="swimlane;startSize=0;" vertex="1" parent="1">
          <mxGeometry x="400" y="780" width="225" height="120" as="geometry" />
        </mxCell>
        <mxCell id="Vi7txVSC50OlgZ6EtbNQ-52" value="NPC" style="text;html=1;strokeColor=none;fillColor=none;align=center;verticalAlign=middle;whiteSpace=wrap;rounded=0;" vertex="1" parent="Vi7txVSC50OlgZ6EtbNQ-50">
          <mxGeometry x="82.5" y="45" width="60" height="30" as="geometry" />
        </mxCell>
        <mxCell id="Vi7txVSC50OlgZ6EtbNQ-165" style="edgeStyle=orthogonalEdgeStyle;rounded=0;orthogonalLoop=1;jettySize=auto;html=1;exitX=1;exitY=0.5;exitDx=0;exitDy=0;entryX=0.5;entryY=0;entryDx=0;entryDy=0;" edge="1" parent="1" source="Vi7txVSC50OlgZ6EtbNQ-55" target="Vi7txVSC50OlgZ6EtbNQ-133">
          <mxGeometry relative="1" as="geometry">
            <mxPoint x="1190" y="480" as="targetPoint" />
            <Array as="points">
              <mxPoint x="1160" y="480" />
            </Array>
          </mxGeometry>
        </mxCell>
        <mxCell id="Vi7txVSC50OlgZ6EtbNQ-166" value="MDUOp_E" style="edgeLabel;html=1;align=center;verticalAlign=middle;resizable=0;points=[];" vertex="1" connectable="0" parent="Vi7txVSC50OlgZ6EtbNQ-165">
          <mxGeometry x="0.731" relative="1" as="geometry">
            <mxPoint as="offset" />
          </mxGeometry>
        </mxCell>
        <mxCell id="Vi7txVSC50OlgZ6EtbNQ-55" value="" style="swimlane;startSize=0;" vertex="1" parent="1">
          <mxGeometry x="860" y="40" width="20" height="900" as="geometry" />
        </mxCell>
        <mxCell id="Vi7txVSC50OlgZ6EtbNQ-129" value="E" style="text;html=1;strokeColor=none;fillColor=none;align=center;verticalAlign=middle;whiteSpace=wrap;rounded=0;" vertex="1" parent="Vi7txVSC50OlgZ6EtbNQ-55">
          <mxGeometry x="-20" y="127.5" width="60" height="30" as="geometry" />
        </mxCell>
        <mxCell id="Vi7txVSC50OlgZ6EtbNQ-56" style="edgeStyle=orthogonalEdgeStyle;rounded=0;orthogonalLoop=1;jettySize=auto;html=1;exitX=1;exitY=0.5;exitDx=0;exitDy=0;entryX=0.022;entryY=0.647;entryDx=0;entryDy=0;entryPerimeter=0;" edge="1" parent="1" source="Vi7txVSC50OlgZ6EtbNQ-46" target="Vi7txVSC50OlgZ6EtbNQ-55">
          <mxGeometry relative="1" as="geometry" />
        </mxCell>
        <mxCell id="Vi7txVSC50OlgZ6EtbNQ-57" value="imm32" style="edgeLabel;html=1;align=center;verticalAlign=middle;resizable=0;points=[];" vertex="1" connectable="0" parent="Vi7txVSC50OlgZ6EtbNQ-56">
          <mxGeometry x="-0.0138" relative="1" as="geometry">
            <mxPoint as="offset" />
          </mxGeometry>
        </mxCell>
        <mxCell id="Vi7txVSC50OlgZ6EtbNQ-65" style="edgeStyle=orthogonalEdgeStyle;rounded=0;orthogonalLoop=1;jettySize=auto;html=1;exitX=1;exitY=0.5;exitDx=0;exitDy=0;entryX=0;entryY=0.5;entryDx=0;entryDy=0;" edge="1" parent="1" source="Vi7txVSC50OlgZ6EtbNQ-62" target="Vi7txVSC50OlgZ6EtbNQ-55">
          <mxGeometry relative="1" as="geometry" />
        </mxCell>
        <mxCell id="Vi7txVSC50OlgZ6EtbNQ-69" value="D_V2" style="edgeLabel;html=1;align=center;verticalAlign=middle;resizable=0;points=[];" vertex="1" connectable="0" parent="Vi7txVSC50OlgZ6EtbNQ-65">
          <mxGeometry x="-0.071" y="2" relative="1" as="geometry">
            <mxPoint x="-1" as="offset" />
          </mxGeometry>
        </mxCell>
        <mxCell id="Vi7txVSC50OlgZ6EtbNQ-124" style="edgeStyle=orthogonalEdgeStyle;rounded=0;orthogonalLoop=1;jettySize=auto;html=1;exitX=1;exitY=0.25;exitDx=0;exitDy=0;entryX=0.882;entryY=1;entryDx=0;entryDy=0;entryPerimeter=0;" edge="1" parent="1" source="Vi7txVSC50OlgZ6EtbNQ-62" target="Vi7txVSC50OlgZ6EtbNQ-121">
          <mxGeometry relative="1" as="geometry">
            <mxPoint x="740" y="810" as="targetPoint" />
            <Array as="points">
              <mxPoint x="800" y="438" />
              <mxPoint x="800" y="810" />
            </Array>
          </mxGeometry>
        </mxCell>
        <mxCell id="Vi7txVSC50OlgZ6EtbNQ-62" value="" style="swimlane;startSize=0;" vertex="1" parent="1">
          <mxGeometry x="620" y="395" width="160" height="170" as="geometry" />
        </mxCell>
        <mxCell id="Vi7txVSC50OlgZ6EtbNQ-78" value="GRF" style="text;html=1;strokeColor=none;fillColor=none;align=center;verticalAlign=middle;whiteSpace=wrap;rounded=0;" vertex="1" parent="Vi7txVSC50OlgZ6EtbNQ-62">
          <mxGeometry x="50" y="60" width="60" height="30" as="geometry" />
        </mxCell>
        <mxCell id="Vi7txVSC50OlgZ6EtbNQ-64" style="edgeStyle=orthogonalEdgeStyle;rounded=0;orthogonalLoop=1;jettySize=auto;html=1;exitX=1;exitY=0.25;exitDx=0;exitDy=0;entryX=-0.175;entryY=0.454;entryDx=0;entryDy=0;entryPerimeter=0;" edge="1" parent="1" source="Vi7txVSC50OlgZ6EtbNQ-62" target="Vi7txVSC50OlgZ6EtbNQ-55">
          <mxGeometry relative="1" as="geometry" />
        </mxCell>
        <mxCell id="Vi7txVSC50OlgZ6EtbNQ-68" value="D_V1" style="edgeLabel;html=1;align=center;verticalAlign=middle;resizable=0;points=[];" vertex="1" connectable="0" parent="Vi7txVSC50OlgZ6EtbNQ-64">
          <mxGeometry x="-0.0021" relative="1" as="geometry">
            <mxPoint x="-1" y="1" as="offset" />
          </mxGeometry>
        </mxCell>
        <mxCell id="Vi7txVSC50OlgZ6EtbNQ-70" value="" style="endArrow=classic;html=1;rounded=0;entryX=-0.015;entryY=0.42;entryDx=0;entryDy=0;entryPerimeter=0;" edge="1" parent="1" target="Vi7txVSC50OlgZ6EtbNQ-50">
          <mxGeometry width="50" height="50" relative="1" as="geometry">
            <mxPoint x="250" y="90" as="sourcePoint" />
            <mxPoint x="280" y="850" as="targetPoint" />
            <Array as="points">
              <mxPoint x="280" y="90" />
              <mxPoint x="280" y="830" />
            </Array>
          </mxGeometry>
        </mxCell>
        <mxCell id="Vi7txVSC50OlgZ6EtbNQ-71" value="D_pc" style="edgeLabel;html=1;align=center;verticalAlign=middle;resizable=0;points=[];" vertex="1" connectable="0" parent="Vi7txVSC50OlgZ6EtbNQ-70">
          <mxGeometry x="0.871" y="-2" relative="1" as="geometry">
            <mxPoint as="offset" />
          </mxGeometry>
        </mxCell>
        <mxCell id="Vi7txVSC50OlgZ6EtbNQ-72" value="" style="endArrow=classic;html=1;rounded=0;entryX=-0.001;entryY=0.838;entryDx=0;entryDy=0;entryPerimeter=0;" edge="1" parent="1" target="Vi7txVSC50OlgZ6EtbNQ-50">
          <mxGeometry width="50" height="50" relative="1" as="geometry">
            <mxPoint x="80" y="180" as="sourcePoint" />
            <mxPoint x="80" y="910" as="targetPoint" />
            <Array as="points">
              <mxPoint x="80" y="880" />
            </Array>
          </mxGeometry>
        </mxCell>
        <mxCell id="Vi7txVSC50OlgZ6EtbNQ-73" value="F_pc" style="edgeLabel;html=1;align=center;verticalAlign=middle;resizable=0;points=[];" vertex="1" connectable="0" parent="Vi7txVSC50OlgZ6EtbNQ-72">
          <mxGeometry x="0.8909" y="-2" relative="1" as="geometry">
            <mxPoint x="-1" as="offset" />
          </mxGeometry>
        </mxCell>
        <mxCell id="Vi7txVSC50OlgZ6EtbNQ-80" value="" style="endArrow=classic;html=1;rounded=0;entryX=0;entryY=0.25;entryDx=0;entryDy=0;" edge="1" parent="1" target="Vi7txVSC50OlgZ6EtbNQ-62">
          <mxGeometry width="50" height="50" relative="1" as="geometry">
            <mxPoint x="320" y="438" as="sourcePoint" />
            <mxPoint x="380" y="395" as="targetPoint" />
          </mxGeometry>
        </mxCell>
        <mxCell id="Vi7txVSC50OlgZ6EtbNQ-82" value="D_rs" style="edgeLabel;html=1;align=center;verticalAlign=middle;resizable=0;points=[];" vertex="1" connectable="0" parent="Vi7txVSC50OlgZ6EtbNQ-80">
          <mxGeometry x="-0.0337" y="-1" relative="1" as="geometry">
            <mxPoint as="offset" />
          </mxGeometry>
        </mxCell>
        <mxCell id="Vi7txVSC50OlgZ6EtbNQ-81" value="" style="endArrow=classic;html=1;rounded=0;entryX=0;entryY=0.5;entryDx=0;entryDy=0;" edge="1" parent="1" target="Vi7txVSC50OlgZ6EtbNQ-62">
          <mxGeometry width="50" height="50" relative="1" as="geometry">
            <mxPoint x="320" y="480" as="sourcePoint" />
            <mxPoint x="462" y="460" as="targetPoint" />
          </mxGeometry>
        </mxCell>
        <mxCell id="Vi7txVSC50OlgZ6EtbNQ-83" value="D_rt" style="edgeLabel;html=1;align=center;verticalAlign=middle;resizable=0;points=[];" vertex="1" connectable="0" parent="Vi7txVSC50OlgZ6EtbNQ-81">
          <mxGeometry x="-0.0651" y="1" relative="1" as="geometry">
            <mxPoint as="offset" />
          </mxGeometry>
        </mxCell>
        <mxCell id="Vi7txVSC50OlgZ6EtbNQ-85" value="" style="endArrow=classic;html=1;rounded=0;entryX=0;entryY=0.75;entryDx=0;entryDy=0;" edge="1" parent="1" target="Vi7txVSC50OlgZ6EtbNQ-62">
          <mxGeometry width="50" height="50" relative="1" as="geometry">
            <mxPoint x="480" y="523" as="sourcePoint" />
            <mxPoint x="570" y="490" as="targetPoint" />
          </mxGeometry>
        </mxCell>
        <mxCell id="Vi7txVSC50OlgZ6EtbNQ-86" value="W_A3" style="edgeLabel;html=1;align=center;verticalAlign=middle;resizable=0;points=[];" vertex="1" connectable="0" parent="Vi7txVSC50OlgZ6EtbNQ-85">
          <mxGeometry x="0.062" relative="1" as="geometry">
            <mxPoint as="offset" />
          </mxGeometry>
        </mxCell>
        <mxCell id="Vi7txVSC50OlgZ6EtbNQ-87" value="" style="swimlane;startSize=0;" vertex="1" parent="1">
          <mxGeometry x="560" y="-70" width="190" height="80" as="geometry" />
        </mxCell>
        <mxCell id="Vi7txVSC50OlgZ6EtbNQ-90" value="CMP" style="text;html=1;strokeColor=none;fillColor=none;align=center;verticalAlign=middle;whiteSpace=wrap;rounded=0;" vertex="1" parent="Vi7txVSC50OlgZ6EtbNQ-87">
          <mxGeometry x="65" y="25" width="60" height="30" as="geometry" />
        </mxCell>
        <mxCell id="Vi7txVSC50OlgZ6EtbNQ-94" value="" style="endArrow=classic;html=1;rounded=0;exitX=0.25;exitY=0;exitDx=0;exitDy=0;entryX=0;entryY=0.5;entryDx=0;entryDy=0;" edge="1" parent="1" source="Vi7txVSC50OlgZ6EtbNQ-33" target="Vi7txVSC50OlgZ6EtbNQ-87">
          <mxGeometry width="50" height="50" relative="1" as="geometry">
            <mxPoint x="417" y="70" as="sourcePoint" />
            <mxPoint x="420" y="-60" as="targetPoint" />
            <Array as="points">
              <mxPoint x="420" y="-30" />
            </Array>
          </mxGeometry>
        </mxCell>
        <mxCell id="Vi7txVSC50OlgZ6EtbNQ-95" value="CMPOp" style="edgeLabel;html=1;align=center;verticalAlign=middle;resizable=0;points=[];" vertex="1" connectable="0" parent="Vi7txVSC50OlgZ6EtbNQ-94">
          <mxGeometry x="0.3839" relative="1" as="geometry">
            <mxPoint as="offset" />
          </mxGeometry>
        </mxCell>
        <mxCell id="Vi7txVSC50OlgZ6EtbNQ-97" style="edgeStyle=orthogonalEdgeStyle;rounded=0;orthogonalLoop=1;jettySize=auto;html=1;exitX=0.25;exitY=1;exitDx=0;exitDy=0;entryX=0.588;entryY=-0.008;entryDx=0;entryDy=0;entryPerimeter=0;" edge="1" parent="1" source="Vi7txVSC50OlgZ6EtbNQ-87" target="Vi7txVSC50OlgZ6EtbNQ-50">
          <mxGeometry relative="1" as="geometry" />
        </mxCell>
        <mxCell id="Vi7txVSC50OlgZ6EtbNQ-98" value="b_result" style="edgeLabel;html=1;align=center;verticalAlign=middle;resizable=0;points=[];" vertex="1" connectable="0" parent="Vi7txVSC50OlgZ6EtbNQ-97">
          <mxGeometry x="0.8996" y="1" relative="1" as="geometry">
            <mxPoint y="-1" as="offset" />
          </mxGeometry>
        </mxCell>
        <mxCell id="Vi7txVSC50OlgZ6EtbNQ-101" value="HMUX" style="shape=trapezoid;perimeter=trapezoidPerimeter;whiteSpace=wrap;html=1;fixedSize=1;direction=west;" vertex="1" parent="1">
          <mxGeometry x="540" y="-140" width="100" height="40" as="geometry" />
        </mxCell>
        <mxCell id="Vi7txVSC50OlgZ6EtbNQ-104" value="HMUX" style="shape=trapezoid;perimeter=trapezoidPerimeter;whiteSpace=wrap;html=1;fixedSize=1;direction=west;" vertex="1" parent="1">
          <mxGeometry x="670" y="-140" width="100" height="40" as="geometry" />
        </mxCell>
        <mxCell id="Vi7txVSC50OlgZ6EtbNQ-105" style="edgeStyle=orthogonalEdgeStyle;rounded=0;orthogonalLoop=1;jettySize=auto;html=1;exitX=0.5;exitY=0;exitDx=0;exitDy=0;entryX=0.84;entryY=-0.012;entryDx=0;entryDy=0;entryPerimeter=0;" edge="1" parent="1" source="Vi7txVSC50OlgZ6EtbNQ-104" target="Vi7txVSC50OlgZ6EtbNQ-87">
          <mxGeometry relative="1" as="geometry" />
        </mxCell>
        <mxCell id="Vi7txVSC50OlgZ6EtbNQ-106" style="edgeStyle=orthogonalEdgeStyle;rounded=0;orthogonalLoop=1;jettySize=auto;html=1;exitX=0.5;exitY=0;exitDx=0;exitDy=0;entryX=0.149;entryY=0.004;entryDx=0;entryDy=0;entryPerimeter=0;" edge="1" parent="1" source="Vi7txVSC50OlgZ6EtbNQ-101" target="Vi7txVSC50OlgZ6EtbNQ-87">
          <mxGeometry relative="1" as="geometry" />
        </mxCell>
        <mxCell id="Vi7txVSC50OlgZ6EtbNQ-107" style="edgeStyle=orthogonalEdgeStyle;rounded=0;orthogonalLoop=1;jettySize=auto;html=1;exitX=0.5;exitY=1;exitDx=0;exitDy=0;entryX=0.421;entryY=0.171;entryDx=0;entryDy=0;entryPerimeter=0;" edge="1" parent="1" source="Vi7txVSC50OlgZ6EtbNQ-33" target="Vi7txVSC50OlgZ6EtbNQ-46">
          <mxGeometry relative="1" as="geometry" />
        </mxCell>
        <mxCell id="Vi7txVSC50OlgZ6EtbNQ-108" value="EXTOp" style="edgeLabel;html=1;align=center;verticalAlign=middle;resizable=0;points=[];" vertex="1" connectable="0" parent="Vi7txVSC50OlgZ6EtbNQ-107">
          <mxGeometry x="0.6625" relative="1" as="geometry">
            <mxPoint as="offset" />
          </mxGeometry>
        </mxCell>
        <mxCell id="Vi7txVSC50OlgZ6EtbNQ-109" value="" style="endArrow=classic;html=1;rounded=0;entryX=0.75;entryY=1;entryDx=0;entryDy=0;" edge="1" parent="1" target="Vi7txVSC50OlgZ6EtbNQ-101">
          <mxGeometry width="50" height="50" relative="1" as="geometry">
            <mxPoint x="565" y="-190" as="sourcePoint" />
            <mxPoint x="580" y="-240" as="targetPoint" />
          </mxGeometry>
        </mxCell>
        <mxCell id="Vi7txVSC50OlgZ6EtbNQ-110" value="D_V1" style="edgeLabel;html=1;align=center;verticalAlign=middle;resizable=0;points=[];" vertex="1" connectable="0" parent="Vi7txVSC50OlgZ6EtbNQ-109">
          <mxGeometry x="-0.08" y="1" relative="1" as="geometry">
            <mxPoint as="offset" />
          </mxGeometry>
        </mxCell>
        <mxCell id="Vi7txVSC50OlgZ6EtbNQ-111" value="" style="endArrow=classic;html=1;rounded=0;entryX=0.75;entryY=1;entryDx=0;entryDy=0;" edge="1" parent="1" target="Vi7txVSC50OlgZ6EtbNQ-104">
          <mxGeometry width="50" height="50" relative="1" as="geometry">
            <mxPoint x="695" y="-190" as="sourcePoint" />
            <mxPoint x="710" y="-210" as="targetPoint" />
          </mxGeometry>
        </mxCell>
        <mxCell id="Vi7txVSC50OlgZ6EtbNQ-112" value="D_V2" style="edgeLabel;html=1;align=center;verticalAlign=middle;resizable=0;points=[];" vertex="1" connectable="0" parent="Vi7txVSC50OlgZ6EtbNQ-111">
          <mxGeometry x="-0.08" y="1" relative="1" as="geometry">
            <mxPoint as="offset" />
          </mxGeometry>
        </mxCell>
        <mxCell id="Vi7txVSC50OlgZ6EtbNQ-113" value="" style="endArrow=classic;html=1;rounded=0;entryX=0.5;entryY=1;entryDx=0;entryDy=0;" edge="1" parent="1" target="Vi7txVSC50OlgZ6EtbNQ-101">
          <mxGeometry width="50" height="50" relative="1" as="geometry">
            <mxPoint x="590" y="-190" as="sourcePoint" />
            <mxPoint x="630" y="-230" as="targetPoint" />
          </mxGeometry>
        </mxCell>
        <mxCell id="Vi7txVSC50OlgZ6EtbNQ-114" value="E_out" style="edgeLabel;html=1;align=center;verticalAlign=middle;resizable=0;points=[];" vertex="1" connectable="0" parent="Vi7txVSC50OlgZ6EtbNQ-113">
          <mxGeometry x="0.08" y="1" relative="1" as="geometry">
            <mxPoint as="offset" />
          </mxGeometry>
        </mxCell>
        <mxCell id="Vi7txVSC50OlgZ6EtbNQ-115" value="" style="endArrow=classic;html=1;rounded=0;entryX=0.5;entryY=1;entryDx=0;entryDy=0;" edge="1" parent="1" target="Vi7txVSC50OlgZ6EtbNQ-104">
          <mxGeometry width="50" height="50" relative="1" as="geometry">
            <mxPoint x="720" y="-190" as="sourcePoint" />
            <mxPoint x="750" y="-240" as="targetPoint" />
          </mxGeometry>
        </mxCell>
        <mxCell id="Vi7txVSC50OlgZ6EtbNQ-116" value="E_out" style="edgeLabel;html=1;align=center;verticalAlign=middle;resizable=0;points=[];" vertex="1" connectable="0" parent="Vi7txVSC50OlgZ6EtbNQ-115">
          <mxGeometry relative="1" as="geometry">
            <mxPoint as="offset" />
          </mxGeometry>
        </mxCell>
        <mxCell id="Vi7txVSC50OlgZ6EtbNQ-117" value="" style="endArrow=classic;html=1;rounded=0;entryX=0.25;entryY=1;entryDx=0;entryDy=0;" edge="1" parent="1" target="Vi7txVSC50OlgZ6EtbNQ-101">
          <mxGeometry width="50" height="50" relative="1" as="geometry">
            <mxPoint x="615" y="-190" as="sourcePoint" />
            <mxPoint x="660" y="-240" as="targetPoint" />
          </mxGeometry>
        </mxCell>
        <mxCell id="Vi7txVSC50OlgZ6EtbNQ-118" value="M_out" style="edgeLabel;html=1;align=center;verticalAlign=middle;resizable=0;points=[];" vertex="1" connectable="0" parent="Vi7txVSC50OlgZ6EtbNQ-117">
          <mxGeometry relative="1" as="geometry">
            <mxPoint as="offset" />
          </mxGeometry>
        </mxCell>
        <mxCell id="Vi7txVSC50OlgZ6EtbNQ-119" value="" style="endArrow=classic;html=1;rounded=0;entryX=0.25;entryY=1;entryDx=0;entryDy=0;" edge="1" parent="1" target="Vi7txVSC50OlgZ6EtbNQ-104">
          <mxGeometry width="50" height="50" relative="1" as="geometry">
            <mxPoint x="745" y="-190" as="sourcePoint" />
            <mxPoint x="780" y="-240" as="targetPoint" />
          </mxGeometry>
        </mxCell>
        <mxCell id="Vi7txVSC50OlgZ6EtbNQ-120" value="M_out" style="edgeLabel;html=1;align=center;verticalAlign=middle;resizable=0;points=[];" vertex="1" connectable="0" parent="Vi7txVSC50OlgZ6EtbNQ-119">
          <mxGeometry y="4" relative="1" as="geometry">
            <mxPoint as="offset" />
          </mxGeometry>
        </mxCell>
        <mxCell id="Vi7txVSC50OlgZ6EtbNQ-123" style="edgeStyle=orthogonalEdgeStyle;rounded=0;orthogonalLoop=1;jettySize=auto;html=1;exitX=0.5;exitY=0;exitDx=0;exitDy=0;entryX=1;entryY=0.5;entryDx=0;entryDy=0;" edge="1" parent="1" source="Vi7txVSC50OlgZ6EtbNQ-121" target="Vi7txVSC50OlgZ6EtbNQ-50">
          <mxGeometry relative="1" as="geometry" />
        </mxCell>
        <mxCell id="Vi7txVSC50OlgZ6EtbNQ-121" value="HMUX" style="shape=trapezoid;perimeter=trapezoidPerimeter;whiteSpace=wrap;html=1;fixedSize=1;direction=north;" vertex="1" parent="1">
          <mxGeometry x="680" y="800" width="40" height="85" as="geometry" />
        </mxCell>
        <mxCell id="Vi7txVSC50OlgZ6EtbNQ-125" value="" style="endArrow=classic;html=1;rounded=0;entryX=0.5;entryY=1;entryDx=0;entryDy=0;" edge="1" parent="1" target="Vi7txVSC50OlgZ6EtbNQ-121">
          <mxGeometry width="50" height="50" relative="1" as="geometry">
            <mxPoint x="790" y="843" as="sourcePoint" />
            <mxPoint x="827" y="835" as="targetPoint" />
          </mxGeometry>
        </mxCell>
        <mxCell id="Vi7txVSC50OlgZ6EtbNQ-126" value="E_out" style="edgeLabel;html=1;align=center;verticalAlign=middle;resizable=0;points=[];" vertex="1" connectable="0" parent="Vi7txVSC50OlgZ6EtbNQ-125">
          <mxGeometry x="0.0759" y="1" relative="1" as="geometry">
            <mxPoint as="offset" />
          </mxGeometry>
        </mxCell>
        <mxCell id="Vi7txVSC50OlgZ6EtbNQ-127" value="" style="endArrow=classic;html=1;rounded=0;entryX=0.094;entryY=0.992;entryDx=0;entryDy=0;entryPerimeter=0;" edge="1" parent="1" target="Vi7txVSC50OlgZ6EtbNQ-121">
          <mxGeometry width="50" height="50" relative="1" as="geometry">
            <mxPoint x="780" y="877" as="sourcePoint" />
            <mxPoint x="820" y="870" as="targetPoint" />
          </mxGeometry>
        </mxCell>
        <mxCell id="Vi7txVSC50OlgZ6EtbNQ-128" value="M_out" style="edgeLabel;html=1;align=center;verticalAlign=middle;resizable=0;points=[];" vertex="1" connectable="0" parent="Vi7txVSC50OlgZ6EtbNQ-127">
          <mxGeometry x="-0.149" y="-2" relative="1" as="geometry">
            <mxPoint as="offset" />
          </mxGeometry>
        </mxCell>
        <mxCell id="Vi7txVSC50OlgZ6EtbNQ-171" style="edgeStyle=orthogonalEdgeStyle;rounded=0;orthogonalLoop=1;jettySize=auto;html=1;exitX=0.5;exitY=0;exitDx=0;exitDy=0;entryX=0.192;entryY=1.072;entryDx=0;entryDy=0;entryPerimeter=0;" edge="1" parent="1" source="Vi7txVSC50OlgZ6EtbNQ-131" target="Vi7txVSC50OlgZ6EtbNQ-177">
          <mxGeometry relative="1" as="geometry">
            <mxPoint x="1350" y="324.80952380952385" as="targetPoint" />
          </mxGeometry>
        </mxCell>
        <mxCell id="Vi7txVSC50OlgZ6EtbNQ-172" value="E_AO" style="edgeLabel;html=1;align=center;verticalAlign=middle;resizable=0;points=[];" vertex="1" connectable="0" parent="Vi7txVSC50OlgZ6EtbNQ-171">
          <mxGeometry x="-0.1408" y="-2" relative="1" as="geometry">
            <mxPoint as="offset" />
          </mxGeometry>
        </mxCell>
        <mxCell id="Vi7txVSC50OlgZ6EtbNQ-131" value="ALU" style="shape=trapezoid;perimeter=trapezoidPerimeter;whiteSpace=wrap;html=1;fixedSize=1;direction=south;size=60;" vertex="1" parent="1">
          <mxGeometry x="1090" y="200" width="100" height="250" as="geometry" />
        </mxCell>
        <mxCell id="Vi7txVSC50OlgZ6EtbNQ-173" style="edgeStyle=orthogonalEdgeStyle;rounded=0;orthogonalLoop=1;jettySize=auto;html=1;exitX=1;exitY=0.5;exitDx=0;exitDy=0;entryX=0.694;entryY=1.061;entryDx=0;entryDy=0;entryPerimeter=0;" edge="1" parent="1" source="Vi7txVSC50OlgZ6EtbNQ-133" target="Vi7txVSC50OlgZ6EtbNQ-177">
          <mxGeometry relative="1" as="geometry">
            <mxPoint x="1350" y="654.333333333333" as="targetPoint" />
            <Array as="points">
              <mxPoint x="1310" y="654" />
              <mxPoint x="1310" y="528" />
            </Array>
          </mxGeometry>
        </mxCell>
        <mxCell id="Vi7txVSC50OlgZ6EtbNQ-174" value="E_MDU_outt" style="edgeLabel;html=1;align=center;verticalAlign=middle;resizable=0;points=[];" vertex="1" connectable="0" parent="Vi7txVSC50OlgZ6EtbNQ-173">
          <mxGeometry x="-0.3012" y="-4" relative="1" as="geometry">
            <mxPoint as="offset" />
          </mxGeometry>
        </mxCell>
        <mxCell id="Vi7txVSC50OlgZ6EtbNQ-175" style="edgeStyle=orthogonalEdgeStyle;rounded=0;orthogonalLoop=1;jettySize=auto;html=1;exitX=0.5;exitY=1;exitDx=0;exitDy=0;" edge="1" parent="1" source="Vi7txVSC50OlgZ6EtbNQ-133">
          <mxGeometry relative="1" as="geometry">
            <mxPoint x="1159.8095238095239" y="985.2380952380952" as="targetPoint" />
          </mxGeometry>
        </mxCell>
        <mxCell id="Vi7txVSC50OlgZ6EtbNQ-176" value="busy" style="edgeLabel;html=1;align=center;verticalAlign=middle;resizable=0;points=[];" vertex="1" connectable="0" parent="Vi7txVSC50OlgZ6EtbNQ-175">
          <mxGeometry x="0.0523" relative="1" as="geometry">
            <mxPoint as="offset" />
          </mxGeometry>
        </mxCell>
        <mxCell id="Vi7txVSC50OlgZ6EtbNQ-133" value="MDU" style="whiteSpace=wrap;html=1;aspect=fixed;" vertex="1" parent="1">
          <mxGeometry x="1090" y="584" width="140" height="140" as="geometry" />
        </mxCell>
        <mxCell id="Vi7txVSC50OlgZ6EtbNQ-169" style="edgeStyle=orthogonalEdgeStyle;rounded=0;orthogonalLoop=1;jettySize=auto;html=1;exitX=0.5;exitY=0;exitDx=0;exitDy=0;entryX=-0.005;entryY=0.112;entryDx=0;entryDy=0;entryPerimeter=0;" edge="1" parent="1" source="Vi7txVSC50OlgZ6EtbNQ-134" target="Vi7txVSC50OlgZ6EtbNQ-133">
          <mxGeometry relative="1" as="geometry">
            <mxPoint x="1070" y="620" as="targetPoint" />
            <Array as="points">
              <mxPoint x="1070" y="280" />
              <mxPoint x="1070" y="600" />
            </Array>
          </mxGeometry>
        </mxCell>
        <mxCell id="Vi7txVSC50OlgZ6EtbNQ-134" value="HMUX" style="shape=trapezoid;perimeter=trapezoidPerimeter;whiteSpace=wrap;html=1;fixedSize=1;direction=south;" vertex="1" parent="1">
          <mxGeometry x="990" y="230" width="40" height="100" as="geometry" />
        </mxCell>
        <mxCell id="Vi7txVSC50OlgZ6EtbNQ-137" style="edgeStyle=orthogonalEdgeStyle;rounded=0;orthogonalLoop=1;jettySize=auto;html=1;exitX=0.5;exitY=0;exitDx=0;exitDy=0;entryX=0.324;entryY=0.992;entryDx=0;entryDy=0;entryPerimeter=0;" edge="1" parent="1" source="Vi7txVSC50OlgZ6EtbNQ-134" target="Vi7txVSC50OlgZ6EtbNQ-131">
          <mxGeometry relative="1" as="geometry" />
        </mxCell>
        <mxCell id="Vi7txVSC50OlgZ6EtbNQ-160" value="E_V1_f" style="edgeLabel;html=1;align=center;verticalAlign=middle;resizable=0;points=[];" vertex="1" connectable="0" parent="Vi7txVSC50OlgZ6EtbNQ-137">
          <mxGeometry x="-0.1065" relative="1" as="geometry">
            <mxPoint as="offset" />
          </mxGeometry>
        </mxCell>
        <mxCell id="Vi7txVSC50OlgZ6EtbNQ-170" style="edgeStyle=orthogonalEdgeStyle;rounded=0;orthogonalLoop=1;jettySize=auto;html=1;exitX=0.5;exitY=0;exitDx=0;exitDy=0;entryX=-0.009;entryY=0.688;entryDx=0;entryDy=0;entryPerimeter=0;" edge="1" parent="1" source="Vi7txVSC50OlgZ6EtbNQ-138" target="Vi7txVSC50OlgZ6EtbNQ-133">
          <mxGeometry relative="1" as="geometry">
            <mxPoint x="1080" y="680" as="targetPoint" />
            <Array as="points">
              <mxPoint x="1010" y="400" />
              <mxPoint x="1010" y="680" />
            </Array>
          </mxGeometry>
        </mxCell>
        <mxCell id="Vi7txVSC50OlgZ6EtbNQ-184" style="edgeStyle=orthogonalEdgeStyle;rounded=0;orthogonalLoop=1;jettySize=auto;html=1;exitX=0.5;exitY=0;exitDx=0;exitDy=0;entryX=0;entryY=1;entryDx=0;entryDy=0;" edge="1" parent="1" source="Vi7txVSC50OlgZ6EtbNQ-138" target="Vi7txVSC50OlgZ6EtbNQ-182">
          <mxGeometry relative="1" as="geometry" />
        </mxCell>
        <mxCell id="Vi7txVSC50OlgZ6EtbNQ-138" value="HMUX" style="shape=trapezoid;perimeter=trapezoidPerimeter;whiteSpace=wrap;html=1;fixedSize=1;direction=south;" vertex="1" parent="1">
          <mxGeometry x="960" y="350" width="40" height="100" as="geometry" />
        </mxCell>
        <mxCell id="Vi7txVSC50OlgZ6EtbNQ-141" value="" style="endArrow=classic;html=1;rounded=0;entryX=0.25;entryY=1;entryDx=0;entryDy=0;" edge="1" parent="1" target="Vi7txVSC50OlgZ6EtbNQ-134">
          <mxGeometry width="50" height="50" relative="1" as="geometry">
            <mxPoint x="890" y="255" as="sourcePoint" />
            <mxPoint x="970" y="255" as="targetPoint" />
          </mxGeometry>
        </mxCell>
        <mxCell id="Vi7txVSC50OlgZ6EtbNQ-142" value="E_V1" style="edgeLabel;html=1;align=center;verticalAlign=middle;resizable=0;points=[];" vertex="1" connectable="0" parent="Vi7txVSC50OlgZ6EtbNQ-141">
          <mxGeometry x="-0.0314" y="-2" relative="1" as="geometry">
            <mxPoint as="offset" />
          </mxGeometry>
        </mxCell>
        <mxCell id="Vi7txVSC50OlgZ6EtbNQ-143" value="" style="endArrow=classic;html=1;rounded=0;entryX=0.25;entryY=1;entryDx=0;entryDy=0;" edge="1" parent="1" target="Vi7txVSC50OlgZ6EtbNQ-138">
          <mxGeometry width="50" height="50" relative="1" as="geometry">
            <mxPoint x="890" y="375" as="sourcePoint" />
            <mxPoint x="970" y="370" as="targetPoint" />
          </mxGeometry>
        </mxCell>
        <mxCell id="Vi7txVSC50OlgZ6EtbNQ-144" value="E_V2" style="edgeLabel;html=1;align=center;verticalAlign=middle;resizable=0;points=[];" vertex="1" connectable="0" parent="Vi7txVSC50OlgZ6EtbNQ-143">
          <mxGeometry x="0.0078" y="2" relative="1" as="geometry">
            <mxPoint as="offset" />
          </mxGeometry>
        </mxCell>
        <mxCell id="Vi7txVSC50OlgZ6EtbNQ-145" value="" style="endArrow=classic;html=1;rounded=0;entryX=0.5;entryY=1;entryDx=0;entryDy=0;" edge="1" parent="1" target="Vi7txVSC50OlgZ6EtbNQ-134">
          <mxGeometry width="50" height="50" relative="1" as="geometry">
            <mxPoint x="930" y="280" as="sourcePoint" />
            <mxPoint x="960" y="280" as="targetPoint" />
          </mxGeometry>
        </mxCell>
        <mxCell id="Vi7txVSC50OlgZ6EtbNQ-146" value="M_out" style="edgeLabel;html=1;align=center;verticalAlign=middle;resizable=0;points=[];" vertex="1" connectable="0" parent="Vi7txVSC50OlgZ6EtbNQ-145">
          <mxGeometry x="-0.149" y="-1" relative="1" as="geometry">
            <mxPoint as="offset" />
          </mxGeometry>
        </mxCell>
        <mxCell id="Vi7txVSC50OlgZ6EtbNQ-147" value="" style="endArrow=classic;html=1;rounded=0;entryX=0.5;entryY=1;entryDx=0;entryDy=0;" edge="1" parent="1" target="Vi7txVSC50OlgZ6EtbNQ-138">
          <mxGeometry width="50" height="50" relative="1" as="geometry">
            <mxPoint x="900" y="400" as="sourcePoint" />
            <mxPoint x="930" y="400" as="targetPoint" />
          </mxGeometry>
        </mxCell>
        <mxCell id="Vi7txVSC50OlgZ6EtbNQ-148" value="M_out" style="edgeLabel;html=1;align=center;verticalAlign=middle;resizable=0;points=[];" vertex="1" connectable="0" parent="Vi7txVSC50OlgZ6EtbNQ-147">
          <mxGeometry x="-0.0314" relative="1" as="geometry">
            <mxPoint as="offset" />
          </mxGeometry>
        </mxCell>
        <mxCell id="Vi7txVSC50OlgZ6EtbNQ-149" value="" style="endArrow=classic;html=1;rounded=0;entryX=0.75;entryY=1;entryDx=0;entryDy=0;" edge="1" parent="1" target="Vi7txVSC50OlgZ6EtbNQ-134">
          <mxGeometry width="50" height="50" relative="1" as="geometry">
            <mxPoint x="930" y="305" as="sourcePoint" />
            <mxPoint x="960" y="300" as="targetPoint" />
          </mxGeometry>
        </mxCell>
        <mxCell id="Vi7txVSC50OlgZ6EtbNQ-150" value="w_out" style="edgeLabel;html=1;align=center;verticalAlign=middle;resizable=0;points=[];" vertex="1" connectable="0" parent="Vi7txVSC50OlgZ6EtbNQ-149">
          <mxGeometry x="-0.3451" y="2" relative="1" as="geometry">
            <mxPoint as="offset" />
          </mxGeometry>
        </mxCell>
        <mxCell id="Vi7txVSC50OlgZ6EtbNQ-151" value="" style="endArrow=classic;html=1;rounded=0;entryX=0.75;entryY=1;entryDx=0;entryDy=0;" edge="1" parent="1" target="Vi7txVSC50OlgZ6EtbNQ-138">
          <mxGeometry width="50" height="50" relative="1" as="geometry">
            <mxPoint x="900" y="425" as="sourcePoint" />
            <mxPoint x="950" y="415" as="targetPoint" />
          </mxGeometry>
        </mxCell>
        <mxCell id="Vi7txVSC50OlgZ6EtbNQ-152" value="W_out" style="edgeLabel;html=1;align=center;verticalAlign=middle;resizable=0;points=[];" vertex="1" connectable="0" parent="Vi7txVSC50OlgZ6EtbNQ-151">
          <mxGeometry x="-0.2144" y="-4" relative="1" as="geometry">
            <mxPoint as="offset" />
          </mxGeometry>
        </mxCell>
        <mxCell id="Vi7txVSC50OlgZ6EtbNQ-153" value="" style="endArrow=classic;html=1;rounded=0;entryX=0;entryY=0.5;entryDx=0;entryDy=0;exitX=1.179;exitY=0.09;exitDx=0;exitDy=0;exitPerimeter=0;" edge="1" parent="1" source="Vi7txVSC50OlgZ6EtbNQ-55" target="Vi7txVSC50OlgZ6EtbNQ-131">
          <mxGeometry width="50" height="50" relative="1" as="geometry">
            <mxPoint x="884" y="122" as="sourcePoint" />
            <mxPoint x="1180" y="120" as="targetPoint" />
            <Array as="points">
              <mxPoint x="1140" y="120" />
            </Array>
          </mxGeometry>
        </mxCell>
        <mxCell id="Vi7txVSC50OlgZ6EtbNQ-154" value="ALUOp_E" style="edgeLabel;html=1;align=center;verticalAlign=middle;resizable=0;points=[];" vertex="1" connectable="0" parent="Vi7txVSC50OlgZ6EtbNQ-153">
          <mxGeometry x="0.7377" relative="1" as="geometry">
            <mxPoint as="offset" />
          </mxGeometry>
        </mxCell>
        <mxCell id="Vi7txVSC50OlgZ6EtbNQ-155" value="MUX" style="shape=trapezoid;perimeter=trapezoidPerimeter;whiteSpace=wrap;html=1;fixedSize=1;direction=south;" vertex="1" parent="1">
          <mxGeometry x="1040" y="190" width="40" height="60" as="geometry" />
        </mxCell>
        <mxCell id="Vi7txVSC50OlgZ6EtbNQ-156" style="edgeStyle=orthogonalEdgeStyle;rounded=0;orthogonalLoop=1;jettySize=auto;html=1;exitX=0.5;exitY=0;exitDx=0;exitDy=0;entryX=0.078;entryY=0.994;entryDx=0;entryDy=0;entryPerimeter=0;" edge="1" parent="1" source="Vi7txVSC50OlgZ6EtbNQ-155" target="Vi7txVSC50OlgZ6EtbNQ-131">
          <mxGeometry relative="1" as="geometry" />
        </mxCell>
        <mxCell id="Vi7txVSC50OlgZ6EtbNQ-157" value="" style="endArrow=classic;html=1;rounded=0;entryX=0.25;entryY=1;entryDx=0;entryDy=0;" edge="1" parent="1" target="Vi7txVSC50OlgZ6EtbNQ-155">
          <mxGeometry width="50" height="50" relative="1" as="geometry">
            <mxPoint x="890" y="205" as="sourcePoint" />
            <mxPoint x="1020" y="190" as="targetPoint" />
          </mxGeometry>
        </mxCell>
        <mxCell id="Vi7txVSC50OlgZ6EtbNQ-158" value="E_V1_f" style="edgeLabel;html=1;align=center;verticalAlign=middle;resizable=0;points=[];" vertex="1" connectable="0" parent="Vi7txVSC50OlgZ6EtbNQ-157">
          <mxGeometry x="-0.0489" y="1" relative="1" as="geometry">
            <mxPoint as="offset" />
          </mxGeometry>
        </mxCell>
        <mxCell id="Vi7txVSC50OlgZ6EtbNQ-163" value="" style="endArrow=classic;html=1;rounded=0;entryX=0.66;entryY=1.021;entryDx=0;entryDy=0;entryPerimeter=0;" edge="1" parent="1" target="Vi7txVSC50OlgZ6EtbNQ-155">
          <mxGeometry width="50" height="50" relative="1" as="geometry">
            <mxPoint x="890" y="230" as="sourcePoint" />
            <mxPoint x="950" y="200" as="targetPoint" />
          </mxGeometry>
        </mxCell>
        <mxCell id="Vi7txVSC50OlgZ6EtbNQ-164" value="E_shamt" style="edgeLabel;html=1;align=center;verticalAlign=middle;resizable=0;points=[];" vertex="1" connectable="0" parent="Vi7txVSC50OlgZ6EtbNQ-163">
          <mxGeometry x="-0.0097" y="-1" relative="1" as="geometry">
            <mxPoint as="offset" />
          </mxGeometry>
        </mxCell>
        <mxCell id="Vi7txVSC50OlgZ6EtbNQ-167" value="" style="endArrow=classic;html=1;rounded=0;entryX=0.25;entryY=0;entryDx=0;entryDy=0;" edge="1" parent="1" target="Vi7txVSC50OlgZ6EtbNQ-133">
          <mxGeometry width="50" height="50" relative="1" as="geometry">
            <mxPoint x="900" y="510" as="sourcePoint" />
            <mxPoint x="1140" y="510" as="targetPoint" />
            <Array as="points">
              <mxPoint x="1125" y="510" />
            </Array>
          </mxGeometry>
        </mxCell>
        <mxCell id="Vi7txVSC50OlgZ6EtbNQ-168" value="start_E" style="edgeLabel;html=1;align=center;verticalAlign=middle;resizable=0;points=[];" vertex="1" connectable="0" parent="Vi7txVSC50OlgZ6EtbNQ-167">
          <mxGeometry x="-0.2262" y="-2" relative="1" as="geometry">
            <mxPoint as="offset" />
          </mxGeometry>
        </mxCell>
        <mxCell id="Vi7txVSC50OlgZ6EtbNQ-180" style="edgeStyle=orthogonalEdgeStyle;rounded=0;orthogonalLoop=1;jettySize=auto;html=1;exitX=0.5;exitY=0;exitDx=0;exitDy=0;" edge="1" parent="1" source="Vi7txVSC50OlgZ6EtbNQ-177">
          <mxGeometry relative="1" as="geometry">
            <mxPoint x="1590" y="504.8823529411766" as="targetPoint" />
          </mxGeometry>
        </mxCell>
        <mxCell id="Vi7txVSC50OlgZ6EtbNQ-181" value="E_AO_new" style="edgeLabel;html=1;align=center;verticalAlign=middle;resizable=0;points=[];" vertex="1" connectable="0" parent="Vi7txVSC50OlgZ6EtbNQ-180">
          <mxGeometry x="-0.1708" y="-1" relative="1" as="geometry">
            <mxPoint as="offset" />
          </mxGeometry>
        </mxCell>
        <mxCell id="Vi7txVSC50OlgZ6EtbNQ-177" value="MUX" style="shape=trapezoid;perimeter=trapezoidPerimeter;whiteSpace=wrap;html=1;fixedSize=1;direction=south;size=30;" vertex="1" parent="1">
          <mxGeometry x="1430" y="445" width="60" height="120" as="geometry" />
        </mxCell>
        <mxCell id="Vi7txVSC50OlgZ6EtbNQ-178" value="" style="endArrow=classic;html=1;rounded=0;entryX=0.933;entryY=0.561;entryDx=0;entryDy=0;entryPerimeter=0;" edge="1" parent="1" target="Vi7txVSC50OlgZ6EtbNQ-177">
          <mxGeometry width="50" height="50" relative="1" as="geometry">
            <mxPoint x="890" y="839.5" as="sourcePoint" />
            <mxPoint x="1480" y="839.5" as="targetPoint" />
            <Array as="points">
              <mxPoint x="1460" y="839.5" />
            </Array>
          </mxGeometry>
        </mxCell>
        <mxCell id="Vi7txVSC50OlgZ6EtbNQ-179" value="E_mf" style="edgeLabel;html=1;align=center;verticalAlign=middle;resizable=0;points=[];" vertex="1" connectable="0" parent="Vi7txVSC50OlgZ6EtbNQ-178">
          <mxGeometry x="-0.0054" y="-1" relative="1" as="geometry">
            <mxPoint y="1" as="offset" />
          </mxGeometry>
        </mxCell>
        <mxCell id="Vi7txVSC50OlgZ6EtbNQ-182" value="MUX" style="shape=trapezoid;perimeter=trapezoidPerimeter;whiteSpace=wrap;html=1;fixedSize=1;direction=south;size=30;" vertex="1" parent="1">
          <mxGeometry x="1030" y="395" width="30" height="75" as="geometry" />
        </mxCell>
        <mxCell id="Vi7txVSC50OlgZ6EtbNQ-185" value="" style="endArrow=classic;html=1;rounded=0;entryX=0.75;entryY=1;entryDx=0;entryDy=0;" edge="1" parent="1">
          <mxGeometry width="50" height="50" relative="1" as="geometry">
            <mxPoint x="890" y="450" as="sourcePoint" />
            <mxPoint x="1030" y="450" as="targetPoint" />
          </mxGeometry>
        </mxCell>
        <mxCell id="Vi7txVSC50OlgZ6EtbNQ-186" value="E_imm32" style="edgeLabel;html=1;align=center;verticalAlign=middle;resizable=0;points=[];" vertex="1" connectable="0" parent="Vi7txVSC50OlgZ6EtbNQ-185">
          <mxGeometry x="-0.6104" y="-1" relative="1" as="geometry">
            <mxPoint x="28" y="-5" as="offset" />
          </mxGeometry>
        </mxCell>
        <mxCell id="Vi7txVSC50OlgZ6EtbNQ-187" style="edgeStyle=orthogonalEdgeStyle;rounded=0;orthogonalLoop=1;jettySize=auto;html=1;exitX=0.5;exitY=0;exitDx=0;exitDy=0;entryX=0.926;entryY=0.984;entryDx=0;entryDy=0;entryPerimeter=0;" edge="1" parent="1" source="Vi7txVSC50OlgZ6EtbNQ-182" target="Vi7txVSC50OlgZ6EtbNQ-131">
          <mxGeometry relative="1" as="geometry" />
        </mxCell>
        <mxCell id="Vi7txVSC50OlgZ6EtbNQ-188" value="MUX" style="shape=trapezoid;perimeter=trapezoidPerimeter;whiteSpace=wrap;html=1;fixedSize=1;direction=south;size=20;" vertex="1" parent="1">
          <mxGeometry x="750" y="680" width="30" height="70" as="geometry" />
        </mxCell>
        <mxCell id="Vi7txVSC50OlgZ6EtbNQ-189" style="edgeStyle=orthogonalEdgeStyle;rounded=0;orthogonalLoop=1;jettySize=auto;html=1;exitX=0.5;exitY=0;exitDx=0;exitDy=0;entryX=-0.049;entryY=0.767;entryDx=0;entryDy=0;entryPerimeter=0;" edge="1" parent="1" source="Vi7txVSC50OlgZ6EtbNQ-188" target="Vi7txVSC50OlgZ6EtbNQ-55">
          <mxGeometry relative="1" as="geometry" />
        </mxCell>
        <mxCell id="Vi7txVSC50OlgZ6EtbNQ-190" value="D_A3" style="edgeLabel;html=1;align=center;verticalAlign=middle;resizable=0;points=[];" vertex="1" connectable="0" parent="Vi7txVSC50OlgZ6EtbNQ-189">
          <mxGeometry x="-0.0271" relative="1" as="geometry">
            <mxPoint as="offset" />
          </mxGeometry>
        </mxCell>
        <mxCell id="Vi7txVSC50OlgZ6EtbNQ-193" value="" style="endArrow=classic;html=1;rounded=0;entryX=0.164;entryY=1.036;entryDx=0;entryDy=0;entryPerimeter=0;" edge="1" parent="1" target="Vi7txVSC50OlgZ6EtbNQ-188">
          <mxGeometry width="50" height="50" relative="1" as="geometry">
            <mxPoint x="600" y="480" as="sourcePoint" />
            <mxPoint x="700" y="660" as="targetPoint" />
            <Array as="points">
              <mxPoint x="600" y="691" />
            </Array>
          </mxGeometry>
        </mxCell>
        <mxCell id="Vi7txVSC50OlgZ6EtbNQ-196" value="D_rt" style="edgeLabel;html=1;align=center;verticalAlign=middle;resizable=0;points=[];" vertex="1" connectable="0" parent="Vi7txVSC50OlgZ6EtbNQ-193">
          <mxGeometry x="0.5723" y="-2" relative="1" as="geometry">
            <mxPoint as="offset" />
          </mxGeometry>
        </mxCell>
        <mxCell id="Vi7txVSC50OlgZ6EtbNQ-197" value="" style="endArrow=classic;html=1;rounded=0;entryX=0.5;entryY=1;entryDx=0;entryDy=0;" edge="1" parent="1" target="Vi7txVSC50OlgZ6EtbNQ-188">
          <mxGeometry width="50" height="50" relative="1" as="geometry">
            <mxPoint x="330" y="715" as="sourcePoint" />
            <mxPoint x="650" y="710" as="targetPoint" />
          </mxGeometry>
        </mxCell>
        <mxCell id="Vi7txVSC50OlgZ6EtbNQ-198" value="D_rd" style="edgeLabel;html=1;align=center;verticalAlign=middle;resizable=0;points=[];" vertex="1" connectable="0" parent="Vi7txVSC50OlgZ6EtbNQ-197">
          <mxGeometry x="0.598" y="-1" relative="1" as="geometry">
            <mxPoint as="offset" />
          </mxGeometry>
        </mxCell>
        <mxCell id="Vi7txVSC50OlgZ6EtbNQ-199" value="" style="endArrow=classic;html=1;rounded=0;entryX=0.75;entryY=1;entryDx=0;entryDy=0;" edge="1" parent="1" target="Vi7txVSC50OlgZ6EtbNQ-188">
          <mxGeometry width="50" height="50" relative="1" as="geometry">
            <mxPoint x="630" y="733" as="sourcePoint" />
            <mxPoint x="725" y="730" as="targetPoint" />
          </mxGeometry>
        </mxCell>
        <mxCell id="Vi7txVSC50OlgZ6EtbNQ-200" value="31" style="edgeLabel;html=1;align=center;verticalAlign=middle;resizable=0;points=[];" vertex="1" connectable="0" parent="Vi7txVSC50OlgZ6EtbNQ-199">
          <mxGeometry x="-0.2708" y="-1" relative="1" as="geometry">
            <mxPoint as="offset" />
          </mxGeometry>
        </mxCell>
        <mxCell id="Vi7txVSC50OlgZ6EtbNQ-202" value="" style="swimlane;startSize=0;" vertex="1" parent="1">
          <mxGeometry x="1600" y="30" width="20" height="900" as="geometry" />
        </mxCell>
        <mxCell id="Vi7txVSC50OlgZ6EtbNQ-203" value="M" style="text;html=1;strokeColor=none;fillColor=none;align=center;verticalAlign=middle;whiteSpace=wrap;rounded=0;" vertex="1" parent="Vi7txVSC50OlgZ6EtbNQ-202">
          <mxGeometry x="-10" y="100" width="40" height="20" as="geometry" />
        </mxCell>
        <mxCell id="Vi7txVSC50OlgZ6EtbNQ-205" value="" style="endArrow=classic;html=1;rounded=0;entryX=-0.208;entryY=0.844;entryDx=0;entryDy=0;entryPerimeter=0;" edge="1" parent="1" target="Vi7txVSC50OlgZ6EtbNQ-202">
          <mxGeometry width="50" height="50" relative="1" as="geometry">
            <mxPoint x="1010" y="680" as="sourcePoint" />
            <mxPoint x="1070" y="740" as="targetPoint" />
            <Array as="points">
              <mxPoint x="1010" y="790" />
            </Array>
          </mxGeometry>
        </mxCell>
        <mxCell id="Vi7txVSC50OlgZ6EtbNQ-206" value="E_V2_f" style="edgeLabel;html=1;align=center;verticalAlign=middle;resizable=0;points=[];" vertex="1" connectable="0" parent="Vi7txVSC50OlgZ6EtbNQ-205">
          <mxGeometry x="0.725" y="1" relative="1" as="geometry">
            <mxPoint as="offset" />
          </mxGeometry>
        </mxCell>
        <mxCell id="Vi7txVSC50OlgZ6EtbNQ-208" value="" style="endArrow=classic;html=1;rounded=0;entryX=0.022;entryY=0.369;entryDx=0;entryDy=0;entryPerimeter=0;" edge="1" parent="1" target="Vi7txVSC50OlgZ6EtbNQ-210">
          <mxGeometry width="50" height="50" relative="1" as="geometry">
            <mxPoint x="1620" y="790" as="sourcePoint" />
            <mxPoint x="1700" y="790" as="targetPoint" />
          </mxGeometry>
        </mxCell>
        <mxCell id="Vi7txVSC50OlgZ6EtbNQ-209" value="M_V2" style="edgeLabel;html=1;align=center;verticalAlign=middle;resizable=0;points=[];" vertex="1" connectable="0" parent="Vi7txVSC50OlgZ6EtbNQ-208">
          <mxGeometry x="0.1042" y="-1" relative="1" as="geometry">
            <mxPoint as="offset" />
          </mxGeometry>
        </mxCell>
        <mxCell id="Vi7txVSC50OlgZ6EtbNQ-219" style="edgeStyle=orthogonalEdgeStyle;rounded=0;orthogonalLoop=1;jettySize=auto;html=1;exitX=0.5;exitY=1;exitDx=0;exitDy=0;entryX=0.25;entryY=0;entryDx=0;entryDy=0;" edge="1" parent="1" source="Vi7txVSC50OlgZ6EtbNQ-210" target="Vi7txVSC50OlgZ6EtbNQ-216">
          <mxGeometry relative="1" as="geometry" />
        </mxCell>
        <mxCell id="Vi7txVSC50OlgZ6EtbNQ-220" value="WD" style="edgeLabel;html=1;align=center;verticalAlign=middle;resizable=0;points=[];" vertex="1" connectable="0" parent="Vi7txVSC50OlgZ6EtbNQ-219">
          <mxGeometry x="-0.6575" y="3" relative="1" as="geometry">
            <mxPoint as="offset" />
          </mxGeometry>
        </mxCell>
        <mxCell id="Vi7txVSC50OlgZ6EtbNQ-210" value="" style="swimlane;startSize=0;" vertex="1" parent="1">
          <mxGeometry x="1770" y="750" width="120" height="110" as="geometry" />
        </mxCell>
        <mxCell id="Vi7txVSC50OlgZ6EtbNQ-211" value="BE" style="text;html=1;align=center;verticalAlign=middle;resizable=0;points=[];autosize=1;strokeColor=none;fillColor=none;" vertex="1" parent="Vi7txVSC50OlgZ6EtbNQ-210">
          <mxGeometry x="40" y="40" width="40" height="30" as="geometry" />
        </mxCell>
        <mxCell id="Vi7txVSC50OlgZ6EtbNQ-212" value="" style="endArrow=classic;html=1;rounded=0;entryX=0.25;entryY=0;entryDx=0;entryDy=0;" edge="1" parent="1" target="Vi7txVSC50OlgZ6EtbNQ-210">
          <mxGeometry width="50" height="50" relative="1" as="geometry">
            <mxPoint x="1620" y="320" as="sourcePoint" />
            <mxPoint x="1820" y="320" as="targetPoint" />
            <Array as="points">
              <mxPoint x="1800" y="320" />
            </Array>
          </mxGeometry>
        </mxCell>
        <mxCell id="Vi7txVSC50OlgZ6EtbNQ-213" value="DMOp" style="edgeLabel;html=1;align=center;verticalAlign=middle;resizable=0;points=[];" vertex="1" connectable="0" parent="Vi7txVSC50OlgZ6EtbNQ-212">
          <mxGeometry x="0.4539" y="4" relative="1" as="geometry">
            <mxPoint as="offset" />
          </mxGeometry>
        </mxCell>
        <mxCell id="Vi7txVSC50OlgZ6EtbNQ-214" value="" style="endArrow=classic;html=1;rounded=0;entryX=0;entryY=0;entryDx=0;entryDy=0;" edge="1" parent="1" target="Vi7txVSC50OlgZ6EtbNQ-210">
          <mxGeometry width="50" height="50" relative="1" as="geometry">
            <mxPoint x="1600" y="510" as="sourcePoint" />
            <mxPoint x="1720" y="775" as="targetPoint" />
            <Array as="points">
              <mxPoint x="1720" y="510" />
              <mxPoint x="1720" y="750" />
            </Array>
          </mxGeometry>
        </mxCell>
        <mxCell id="Vi7txVSC50OlgZ6EtbNQ-215" value="M_AO" style="edgeLabel;html=1;align=center;verticalAlign=middle;resizable=0;points=[];" vertex="1" connectable="0" parent="Vi7txVSC50OlgZ6EtbNQ-214">
          <mxGeometry x="-0.7458" y="2" relative="1" as="geometry">
            <mxPoint as="offset" />
          </mxGeometry>
        </mxCell>
        <mxCell id="Vi7txVSC50OlgZ6EtbNQ-216" value="" style="swimlane;startSize=0;" vertex="1" parent="1">
          <mxGeometry x="1880" y="1050" width="210" height="100" as="geometry" />
        </mxCell>
        <mxCell id="Vi7txVSC50OlgZ6EtbNQ-218" value="DM" style="text;html=1;strokeColor=none;fillColor=none;align=center;verticalAlign=middle;whiteSpace=wrap;rounded=0;" vertex="1" parent="Vi7txVSC50OlgZ6EtbNQ-216">
          <mxGeometry x="75" y="35" width="60" height="30" as="geometry" />
        </mxCell>
        <mxCell id="Vi7txVSC50OlgZ6EtbNQ-227" style="edgeStyle=orthogonalEdgeStyle;rounded=0;orthogonalLoop=1;jettySize=auto;html=1;exitX=1;exitY=0.5;exitDx=0;exitDy=0;entryX=-0.025;entryY=0.865;entryDx=0;entryDy=0;entryPerimeter=0;" edge="1" parent="1" source="Vi7txVSC50OlgZ6EtbNQ-221" target="Vi7txVSC50OlgZ6EtbNQ-230">
          <mxGeometry relative="1" as="geometry">
            <mxPoint x="2290" y="805" as="targetPoint" />
          </mxGeometry>
        </mxCell>
        <mxCell id="Vi7txVSC50OlgZ6EtbNQ-228" value="DM_DR" style="edgeLabel;html=1;align=center;verticalAlign=middle;resizable=0;points=[];" vertex="1" connectable="0" parent="Vi7txVSC50OlgZ6EtbNQ-227">
          <mxGeometry x="0.0689" y="-1" relative="1" as="geometry">
            <mxPoint as="offset" />
          </mxGeometry>
        </mxCell>
        <mxCell id="Vi7txVSC50OlgZ6EtbNQ-221" value="" style="swimlane;startSize=0;" vertex="1" parent="1">
          <mxGeometry x="1970" y="750" width="120" height="110" as="geometry" />
        </mxCell>
        <mxCell id="Vi7txVSC50OlgZ6EtbNQ-223" value="DE" style="text;html=1;strokeColor=none;fillColor=none;align=center;verticalAlign=middle;whiteSpace=wrap;rounded=0;" vertex="1" parent="Vi7txVSC50OlgZ6EtbNQ-221">
          <mxGeometry x="30" y="40" width="60" height="30" as="geometry" />
        </mxCell>
        <mxCell id="Vi7txVSC50OlgZ6EtbNQ-224" style="edgeStyle=orthogonalEdgeStyle;rounded=0;orthogonalLoop=1;jettySize=auto;html=1;exitX=0.75;exitY=0;exitDx=0;exitDy=0;entryX=0.583;entryY=1.042;entryDx=0;entryDy=0;entryPerimeter=0;" edge="1" parent="1" source="Vi7txVSC50OlgZ6EtbNQ-216" target="Vi7txVSC50OlgZ6EtbNQ-221">
          <mxGeometry relative="1" as="geometry" />
        </mxCell>
        <mxCell id="Vi7txVSC50OlgZ6EtbNQ-225" value="RD" style="edgeLabel;html=1;align=center;verticalAlign=middle;resizable=0;points=[];" vertex="1" connectable="0" parent="Vi7txVSC50OlgZ6EtbNQ-224">
          <mxGeometry x="0.0645" relative="1" as="geometry">
            <mxPoint as="offset" />
          </mxGeometry>
        </mxCell>
        <mxCell id="Vi7txVSC50OlgZ6EtbNQ-226" value="" style="endArrow=classic;html=1;rounded=0;entryX=0.368;entryY=-0.004;entryDx=0;entryDy=0;entryPerimeter=0;" edge="1" parent="1" target="Vi7txVSC50OlgZ6EtbNQ-221">
          <mxGeometry width="50" height="50" relative="1" as="geometry">
            <mxPoint x="1800" y="680" as="sourcePoint" />
            <mxPoint x="2050" y="680" as="targetPoint" />
            <Array as="points">
              <mxPoint x="2014" y="680" />
            </Array>
          </mxGeometry>
        </mxCell>
        <mxCell id="Vi7txVSC50OlgZ6EtbNQ-229" value="" style="endArrow=classic;html=1;rounded=0;" edge="1" parent="1">
          <mxGeometry width="50" height="50" relative="1" as="geometry">
            <mxPoint x="1720" y="510" as="sourcePoint" />
            <mxPoint x="2320" y="510" as="targetPoint" />
          </mxGeometry>
        </mxCell>
        <mxCell id="Vi7txVSC50OlgZ6EtbNQ-230" value="" style="swimlane;startSize=0;" vertex="1" parent="1">
          <mxGeometry x="2320" y="30" width="30" height="900" as="geometry" />
        </mxCell>
        <mxCell id="Vi7txVSC50OlgZ6EtbNQ-231" value="W" style="text;html=1;strokeColor=none;fillColor=none;align=center;verticalAlign=middle;whiteSpace=wrap;rounded=0;" vertex="1" parent="Vi7txVSC50OlgZ6EtbNQ-230">
          <mxGeometry x="-5" y="100" width="40" height="20" as="geometry" />
        </mxCell>
        <mxCell id="Vi7txVSC50OlgZ6EtbNQ-232" value="" style="endArrow=classic;html=1;rounded=0;entryX=-0.018;entryY=0.41;entryDx=0;entryDy=0;entryPerimeter=0;" edge="1" parent="1" target="Vi7txVSC50OlgZ6EtbNQ-216">
          <mxGeometry width="50" height="50" relative="1" as="geometry">
            <mxPoint x="1720" y="750" as="sourcePoint" />
            <mxPoint x="1720" y="1130" as="targetPoint" />
            <Array as="points">
              <mxPoint x="1720" y="1090" />
            </Array>
          </mxGeometry>
        </mxCell>
        <mxCell id="Vi7txVSC50OlgZ6EtbNQ-241" style="edgeStyle=orthogonalEdgeStyle;rounded=0;orthogonalLoop=1;jettySize=auto;html=1;exitX=0.5;exitY=0;exitDx=0;exitDy=0;" edge="1" parent="1" source="Vi7txVSC50OlgZ6EtbNQ-233">
          <mxGeometry relative="1" as="geometry">
            <mxPoint x="1070" y="897.294117647059" as="targetPoint" />
          </mxGeometry>
        </mxCell>
        <mxCell id="Vi7txVSC50OlgZ6EtbNQ-242" value="E_out" style="edgeLabel;html=1;align=center;verticalAlign=middle;resizable=0;points=[];" vertex="1" connectable="0" parent="Vi7txVSC50OlgZ6EtbNQ-241">
          <mxGeometry x="-0.0282" y="4" relative="1" as="geometry">
            <mxPoint as="offset" />
          </mxGeometry>
        </mxCell>
        <mxCell id="Vi7txVSC50OlgZ6EtbNQ-233" value="MUX" style="shape=trapezoid;perimeter=trapezoidPerimeter;whiteSpace=wrap;html=1;fixedSize=1;direction=south;size=30.000000000000455;" vertex="1" parent="1">
          <mxGeometry x="970" y="850" width="40" height="95" as="geometry" />
        </mxCell>
        <mxCell id="Vi7txVSC50OlgZ6EtbNQ-235" value="MUX" style="shape=trapezoid;perimeter=trapezoidPerimeter;whiteSpace=wrap;html=1;fixedSize=1;direction=south;size=30.000000000000455;" vertex="1" parent="1">
          <mxGeometry x="1670" y="835" width="40" height="95" as="geometry" />
        </mxCell>
        <mxCell id="Vi7txVSC50OlgZ6EtbNQ-236" value="MUX" style="shape=trapezoid;perimeter=trapezoidPerimeter;whiteSpace=wrap;html=1;fixedSize=1;direction=south;size=30.000000000000455;" vertex="1" parent="1">
          <mxGeometry x="2420" y="810" width="40" height="95" as="geometry" />
        </mxCell>
        <mxCell id="Vi7txVSC50OlgZ6EtbNQ-237" value="" style="endArrow=classic;html=1;rounded=0;entryX=0.25;entryY=1;entryDx=0;entryDy=0;exitX=1.13;exitY=0.925;exitDx=0;exitDy=0;exitPerimeter=0;" edge="1" parent="1" source="Vi7txVSC50OlgZ6EtbNQ-55" target="Vi7txVSC50OlgZ6EtbNQ-233">
          <mxGeometry width="50" height="50" relative="1" as="geometry">
            <mxPoint x="890" y="890" as="sourcePoint" />
            <mxPoint x="940" y="840" as="targetPoint" />
          </mxGeometry>
        </mxCell>
        <mxCell id="Vi7txVSC50OlgZ6EtbNQ-238" value="E_E32" style="edgeLabel;html=1;align=center;verticalAlign=middle;resizable=0;points=[];" vertex="1" connectable="0" parent="Vi7txVSC50OlgZ6EtbNQ-237">
          <mxGeometry x="0.0134" y="1" relative="1" as="geometry">
            <mxPoint as="offset" />
          </mxGeometry>
        </mxCell>
        <mxCell id="Vi7txVSC50OlgZ6EtbNQ-239" value="" style="endArrow=classic;html=1;rounded=0;entryX=0.75;entryY=1;entryDx=0;entryDy=0;" edge="1" parent="1" target="Vi7txVSC50OlgZ6EtbNQ-233">
          <mxGeometry width="50" height="50" relative="1" as="geometry">
            <mxPoint x="890" y="920" as="sourcePoint" />
            <mxPoint x="940" y="870" as="targetPoint" />
          </mxGeometry>
        </mxCell>
        <mxCell id="Vi7txVSC50OlgZ6EtbNQ-240" value="E_pc8" style="edgeLabel;html=1;align=center;verticalAlign=middle;resizable=0;points=[];" vertex="1" connectable="0" parent="Vi7txVSC50OlgZ6EtbNQ-239">
          <mxGeometry x="-0.0622" relative="1" as="geometry">
            <mxPoint as="offset" />
          </mxGeometry>
        </mxCell>
        <mxCell id="Vi7txVSC50OlgZ6EtbNQ-244" value="" style="endArrow=classic;html=1;rounded=0;entryX=0.25;entryY=1;entryDx=0;entryDy=0;exitX=1.001;exitY=0.894;exitDx=0;exitDy=0;exitPerimeter=0;" edge="1" parent="1" source="Vi7txVSC50OlgZ6EtbNQ-230" target="Vi7txVSC50OlgZ6EtbNQ-236">
          <mxGeometry width="50" height="50" relative="1" as="geometry">
            <mxPoint x="2350" y="830" as="sourcePoint" />
            <mxPoint x="2400" y="780" as="targetPoint" />
          </mxGeometry>
        </mxCell>
        <mxCell id="Vi7txVSC50OlgZ6EtbNQ-245" value="M_AO" style="edgeLabel;html=1;align=center;verticalAlign=middle;resizable=0;points=[];" vertex="1" connectable="0" parent="Vi7txVSC50OlgZ6EtbNQ-244">
          <mxGeometry x="-0.1377" y="2" relative="1" as="geometry">
            <mxPoint as="offset" />
          </mxGeometry>
        </mxCell>
        <mxCell id="Vi7txVSC50OlgZ6EtbNQ-246" value="" style="endArrow=classic;html=1;rounded=0;entryX=0.5;entryY=1;entryDx=0;entryDy=0;exitX=1.128;exitY=0.923;exitDx=0;exitDy=0;exitPerimeter=0;" edge="1" parent="1" source="Vi7txVSC50OlgZ6EtbNQ-230" target="Vi7txVSC50OlgZ6EtbNQ-236">
          <mxGeometry width="50" height="50" relative="1" as="geometry">
            <mxPoint x="2360" y="860" as="sourcePoint" />
            <mxPoint x="2410" y="857.5" as="targetPoint" />
          </mxGeometry>
        </mxCell>
        <mxCell id="Vi7txVSC50OlgZ6EtbNQ-247" value="M_DR" style="edgeLabel;html=1;align=center;verticalAlign=middle;resizable=0;points=[];" vertex="1" connectable="0" parent="Vi7txVSC50OlgZ6EtbNQ-246">
          <mxGeometry x="-0.2614" relative="1" as="geometry">
            <mxPoint as="offset" />
          </mxGeometry>
        </mxCell>
        <mxCell id="Vi7txVSC50OlgZ6EtbNQ-248" value="" style="endArrow=classic;html=1;rounded=0;exitX=0.979;exitY=0.947;exitDx=0;exitDy=0;exitPerimeter=0;entryX=0.75;entryY=1;entryDx=0;entryDy=0;" edge="1" parent="1" source="Vi7txVSC50OlgZ6EtbNQ-230" target="Vi7txVSC50OlgZ6EtbNQ-236">
          <mxGeometry width="50" height="50" relative="1" as="geometry">
            <mxPoint x="2370" y="930" as="sourcePoint" />
            <mxPoint x="2420" y="880" as="targetPoint" />
          </mxGeometry>
        </mxCell>
        <mxCell id="Vi7txVSC50OlgZ6EtbNQ-249" value="M_pc8" style="edgeLabel;html=1;align=center;verticalAlign=middle;resizable=0;points=[];" vertex="1" connectable="0" parent="Vi7txVSC50OlgZ6EtbNQ-248">
          <mxGeometry x="-0.0477" y="-2" relative="1" as="geometry">
            <mxPoint as="offset" />
          </mxGeometry>
        </mxCell>
        <mxCell id="Vi7txVSC50OlgZ6EtbNQ-250" value="" style="endArrow=classic;html=1;rounded=0;" edge="1" parent="1">
          <mxGeometry width="50" height="50" relative="1" as="geometry">
            <mxPoint x="2460" y="860" as="sourcePoint" />
            <mxPoint x="2520" y="860" as="targetPoint" />
          </mxGeometry>
        </mxCell>
        <mxCell id="Vi7txVSC50OlgZ6EtbNQ-251" value="W_out" style="edgeLabel;html=1;align=center;verticalAlign=middle;resizable=0;points=[];" vertex="1" connectable="0" parent="Vi7txVSC50OlgZ6EtbNQ-250">
          <mxGeometry x="-0.0101" y="-3" relative="1" as="geometry">
            <mxPoint as="offset" />
          </mxGeometry>
        </mxCell>
        <mxCell id="Vi7txVSC50OlgZ6EtbNQ-252" value="" style="endArrow=classic;html=1;rounded=0;entryX=0.328;entryY=0.996;entryDx=0;entryDy=0;entryPerimeter=0;" edge="1" parent="1" target="Vi7txVSC50OlgZ6EtbNQ-235">
          <mxGeometry width="50" height="50" relative="1" as="geometry">
            <mxPoint x="1620" y="867.5" as="sourcePoint" />
            <mxPoint x="1670" y="817.5" as="targetPoint" />
          </mxGeometry>
        </mxCell>
        <mxCell id="Vi7txVSC50OlgZ6EtbNQ-253" value="M_AO" style="edgeLabel;html=1;align=center;verticalAlign=middle;resizable=0;points=[];" vertex="1" connectable="0" parent="Vi7txVSC50OlgZ6EtbNQ-252">
          <mxGeometry x="-0.2228" y="2" relative="1" as="geometry">
            <mxPoint as="offset" />
          </mxGeometry>
        </mxCell>
        <mxCell id="Vi7txVSC50OlgZ6EtbNQ-254" value="" style="endArrow=classic;html=1;rounded=0;entryX=0.75;entryY=1;entryDx=0;entryDy=0;" edge="1" parent="1" target="Vi7txVSC50OlgZ6EtbNQ-235">
          <mxGeometry width="50" height="50" relative="1" as="geometry">
            <mxPoint x="1620" y="906" as="sourcePoint" />
            <mxPoint x="1670" y="860" as="targetPoint" />
          </mxGeometry>
        </mxCell>
        <mxCell id="Vi7txVSC50OlgZ6EtbNQ-255" value="M_pc8" style="edgeLabel;html=1;align=center;verticalAlign=middle;resizable=0;points=[];" vertex="1" connectable="0" parent="Vi7txVSC50OlgZ6EtbNQ-254">
          <mxGeometry x="-0.358" y="-1" relative="1" as="geometry">
            <mxPoint x="4" y="-2" as="offset" />
          </mxGeometry>
        </mxCell>
        <mxCell id="Vi7txVSC50OlgZ6EtbNQ-256" value="" style="endArrow=classic;html=1;rounded=0;" edge="1" parent="1">
          <mxGeometry width="50" height="50" relative="1" as="geometry">
            <mxPoint x="1710" y="885" as="sourcePoint" />
            <mxPoint x="1780" y="885" as="targetPoint" />
          </mxGeometry>
        </mxCell>
        <mxCell id="Vi7txVSC50OlgZ6EtbNQ-257" value="M_out" style="edgeLabel;html=1;align=center;verticalAlign=middle;resizable=0;points=[];" vertex="1" connectable="0" parent="Vi7txVSC50OlgZ6EtbNQ-256">
          <mxGeometry x="-0.2558" relative="1" as="geometry">
            <mxPoint x="14" as="offset" />
          </mxGeometry>
        </mxCell>
        <mxCell id="Vi7txVSC50OlgZ6EtbNQ-258" value="" style="endArrow=classic;html=1;rounded=0;entryX=0.007;entryY=0.91;entryDx=0;entryDy=0;entryPerimeter=0;" edge="1" parent="1" target="Vi7txVSC50OlgZ6EtbNQ-62">
          <mxGeometry width="50" height="50" relative="1" as="geometry">
            <mxPoint x="480" y="550" as="sourcePoint" />
            <mxPoint x="520" y="534" as="targetPoint" />
          </mxGeometry>
        </mxCell>
        <mxCell id="Vi7txVSC50OlgZ6EtbNQ-259" value="W_out" style="edgeLabel;html=1;align=center;verticalAlign=middle;resizable=0;points=[];" vertex="1" connectable="0" parent="Vi7txVSC50OlgZ6EtbNQ-258">
          <mxGeometry x="-0.0237" y="-1" relative="1" as="geometry">
            <mxPoint x="11" as="offset" />
          </mxGeometry>
        </mxCell>
        <mxCell id="Vi7txVSC50OlgZ6EtbNQ-260" value="" style="endArrow=classic;html=1;rounded=0;entryX=0.5;entryY=0;entryDx=0;entryDy=0;" edge="1" parent="1" target="Vi7txVSC50OlgZ6EtbNQ-62">
          <mxGeometry width="50" height="50" relative="1" as="geometry">
            <mxPoint x="700" y="320" as="sourcePoint" />
            <mxPoint x="710" y="310" as="targetPoint" />
          </mxGeometry>
        </mxCell>
        <mxCell id="Vi7txVSC50OlgZ6EtbNQ-261" value="RegWrite_W" style="edgeLabel;html=1;align=center;verticalAlign=middle;resizable=0;points=[];" vertex="1" connectable="0" parent="Vi7txVSC50OlgZ6EtbNQ-260">
          <mxGeometry x="-0.0222" y="1" relative="1" as="geometry">
            <mxPoint as="offset" />
          </mxGeometry>
        </mxCell>
      </root>
    </mxGraphModel>
  </diagram>
</mxfile>
